<mxfile host="app.diagrams.net" agent="Mozilla/5.0 (X11; Linux x86_64) AppleWebKit/537.36 (KHTML, like Gecko) Chrome/131.0.0.0 Safari/537.36" version="25.0.1">
  <diagram name="Page-1" id="CQ1wZ_i5pYJa2J5XHa7U">
    <mxGraphModel dx="2943" dy="2186" grid="1" gridSize="10" guides="1" tooltips="1" connect="1" arrows="1" fold="1" page="1" pageScale="1" pageWidth="827" pageHeight="1169" math="0" shadow="0">
      <root>
        <mxCell id="0" />
        <mxCell id="1" parent="0" />
        <mxCell id="HAakoLxj5uLmYUCumlcH-93" value="" style="rounded=0;whiteSpace=wrap;html=1;fillColor=#fff2cc;strokeColor=#d6b656;" vertex="1" parent="1">
          <mxGeometry x="1781" y="907" width="359" height="430" as="geometry" />
        </mxCell>
        <mxCell id="HAakoLxj5uLmYUCumlcH-61" value="" style="whiteSpace=wrap;html=1;aspect=fixed;fillColor=#fff2cc;strokeColor=#d6b656;" vertex="1" parent="1">
          <mxGeometry x="-188" y="1400" width="281" height="281" as="geometry" />
        </mxCell>
        <mxCell id="HAakoLxj5uLmYUCumlcH-1" value="&lt;span style=&quot;font-size: 20px;&quot;&gt;GRPC server&lt;/span&gt;" style="rounded=0;whiteSpace=wrap;html=1;fillColor=#fff2cc;strokeColor=#d6b656;" vertex="1" parent="1">
          <mxGeometry x="160" y="110" width="210" height="430" as="geometry" />
        </mxCell>
        <mxCell id="HAakoLxj5uLmYUCumlcH-2" value="&lt;span style=&quot;font-size: 20px;&quot;&gt;GRPC client&amp;nbsp;&lt;br&gt;slave #1&lt;/span&gt;" style="rounded=0;whiteSpace=wrap;html=1;fillColor=#fff2cc;strokeColor=#d6b656;" vertex="1" parent="1">
          <mxGeometry x="680" y="110" width="160" height="160" as="geometry" />
        </mxCell>
        <mxCell id="HAakoLxj5uLmYUCumlcH-7" value="&lt;span style=&quot;font-size: 20px;&quot;&gt;GRPC client&lt;/span&gt;&lt;div&gt;&lt;span style=&quot;font-size: 20px;&quot;&gt;slave #2&lt;/span&gt;&lt;/div&gt;" style="rounded=0;whiteSpace=wrap;html=1;fillColor=#fff2cc;strokeColor=#d6b656;" vertex="1" parent="1">
          <mxGeometry x="680" y="310" width="160" height="160" as="geometry" />
        </mxCell>
        <mxCell id="HAakoLxj5uLmYUCumlcH-11" value="&lt;font style=&quot;font-size: 52px;&quot;&gt;....&lt;/font&gt;" style="text;html=1;align=center;verticalAlign=middle;whiteSpace=wrap;rounded=0;" vertex="1" parent="1">
          <mxGeometry x="730" y="510" width="60" height="30" as="geometry" />
        </mxCell>
        <mxCell id="HAakoLxj5uLmYUCumlcH-13" value="" style="endArrow=classic;html=1;rounded=0;entryX=-0.006;entryY=0.313;entryDx=0;entryDy=0;entryPerimeter=0;strokeWidth=4;" edge="1" parent="1" target="HAakoLxj5uLmYUCumlcH-2">
          <mxGeometry width="50" height="50" relative="1" as="geometry">
            <mxPoint x="370" y="160" as="sourcePoint" />
            <mxPoint x="420" y="110" as="targetPoint" />
          </mxGeometry>
        </mxCell>
        <mxCell id="HAakoLxj5uLmYUCumlcH-14" value="" style="endArrow=classic;html=1;rounded=0;entryX=-0.006;entryY=0.313;entryDx=0;entryDy=0;entryPerimeter=0;strokeWidth=4;" edge="1" parent="1">
          <mxGeometry width="50" height="50" relative="1" as="geometry">
            <mxPoint x="680" y="230" as="sourcePoint" />
            <mxPoint x="371" y="230" as="targetPoint" />
          </mxGeometry>
        </mxCell>
        <mxCell id="HAakoLxj5uLmYUCumlcH-15" value="" style="endArrow=classic;html=1;rounded=0;entryX=-0.006;entryY=0.313;entryDx=0;entryDy=0;entryPerimeter=0;strokeWidth=4;" edge="1" parent="1">
          <mxGeometry width="50" height="50" relative="1" as="geometry">
            <mxPoint x="370" y="354.5" as="sourcePoint" />
            <mxPoint x="679" y="354.5" as="targetPoint" />
          </mxGeometry>
        </mxCell>
        <mxCell id="HAakoLxj5uLmYUCumlcH-16" value="" style="endArrow=classic;html=1;rounded=0;entryX=-0.006;entryY=0.313;entryDx=0;entryDy=0;entryPerimeter=0;strokeWidth=4;" edge="1" parent="1">
          <mxGeometry width="50" height="50" relative="1" as="geometry">
            <mxPoint x="680" y="424.5" as="sourcePoint" />
            <mxPoint x="371" y="424.5" as="targetPoint" />
          </mxGeometry>
        </mxCell>
        <mxCell id="HAakoLxj5uLmYUCumlcH-17" value="&lt;font style=&quot;font-size: 20px;&quot;&gt;PoulpeState&lt;/font&gt;" style="text;html=1;align=center;verticalAlign=middle;whiteSpace=wrap;rounded=0;labelBackgroundColor=default;strokeColor=none;fillColor=default;" vertex="1" parent="1">
          <mxGeometry x="473" y="143" width="108" height="30" as="geometry" />
        </mxCell>
        <mxCell id="HAakoLxj5uLmYUCumlcH-18" value="&lt;font style=&quot;font-size: 20px;&quot;&gt;PoulpeState&lt;/font&gt;" style="text;html=1;align=center;verticalAlign=middle;whiteSpace=wrap;rounded=0;labelBackgroundColor=default;strokeColor=none;fillColor=default;" vertex="1" parent="1">
          <mxGeometry x="472" y="339" width="116" height="30" as="geometry" />
        </mxCell>
        <mxCell id="HAakoLxj5uLmYUCumlcH-21" value="&lt;font style=&quot;font-size: 20px;&quot;&gt;PoulpeCommand&lt;/font&gt;" style="text;html=1;align=center;verticalAlign=middle;whiteSpace=wrap;rounded=0;labelBackgroundColor=default;strokeColor=none;fillColor=default;" vertex="1" parent="1">
          <mxGeometry x="442" y="409" width="173" height="30" as="geometry" />
        </mxCell>
        <mxCell id="HAakoLxj5uLmYUCumlcH-22" value="&lt;font style=&quot;font-size: 20px;&quot;&gt;PoulpeCommand&lt;/font&gt;" style="text;html=1;align=center;verticalAlign=middle;whiteSpace=wrap;rounded=0;labelBackgroundColor=default;strokeColor=none;fillColor=default;" vertex="1" parent="1">
          <mxGeometry x="445" y="215" width="173" height="30" as="geometry" />
        </mxCell>
        <mxCell id="HAakoLxj5uLmYUCumlcH-23" value="&lt;span style=&quot;font-size: 20px;&quot;&gt;EtherCAT master&lt;br&gt;(ethercat_controller)&lt;/span&gt;" style="rounded=0;whiteSpace=wrap;html=1;fillColor=#fff2cc;strokeColor=#d6b656;" vertex="1" parent="1">
          <mxGeometry x="-187" y="241" width="180" height="180" as="geometry" />
        </mxCell>
        <mxCell id="HAakoLxj5uLmYUCumlcH-33" value="" style="endArrow=classic;startArrow=classic;html=1;rounded=0;entryX=1.017;entryY=0.467;entryDx=0;entryDy=0;entryPerimeter=0;exitX=0;exitY=0.5;exitDx=0;exitDy=0;strokeWidth=4;" edge="1" parent="1" source="HAakoLxj5uLmYUCumlcH-1" target="HAakoLxj5uLmYUCumlcH-23">
          <mxGeometry width="100" height="100" relative="1" as="geometry">
            <mxPoint x="340" y="370" as="sourcePoint" />
            <mxPoint x="440" y="270" as="targetPoint" />
          </mxGeometry>
        </mxCell>
        <mxCell id="HAakoLxj5uLmYUCumlcH-34" value="&lt;font style=&quot;font-size: 20px;&quot;&gt;1kHz&lt;/font&gt;" style="text;html=1;align=center;verticalAlign=middle;whiteSpace=wrap;rounded=0;" vertex="1" parent="1">
          <mxGeometry x="-70" y="248" width="60" height="30" as="geometry" />
        </mxCell>
        <mxCell id="HAakoLxj5uLmYUCumlcH-36" value="&lt;span style=&quot;font-size: 20px;&quot;&gt;EhterCAT GmbH&lt;/span&gt;&lt;div&gt;&lt;span style=&quot;font-size: 20px;&quot;&gt;master deamon&lt;/span&gt;&lt;/div&gt;" style="rounded=0;whiteSpace=wrap;html=1;" vertex="1" parent="1">
          <mxGeometry x="-538" y="241" width="180" height="180" as="geometry" />
        </mxCell>
        <mxCell id="HAakoLxj5uLmYUCumlcH-37" value="" style="endArrow=classic;startArrow=classic;html=1;rounded=0;entryX=1;entryY=0.5;entryDx=0;entryDy=0;strokeWidth=5;" edge="1" parent="1" target="HAakoLxj5uLmYUCumlcH-36">
          <mxGeometry width="100" height="100" relative="1" as="geometry">
            <mxPoint x="-187" y="330" as="sourcePoint" />
            <mxPoint x="-337" y="330.5" as="targetPoint" />
          </mxGeometry>
        </mxCell>
        <mxCell id="HAakoLxj5uLmYUCumlcH-38" value="&lt;span style=&quot;font-size: 20px;&quot;&gt;Poulpe board #1&lt;/span&gt;" style="rounded=0;whiteSpace=wrap;html=1;" vertex="1" parent="1">
          <mxGeometry x="-900" y="278" width="180" height="119" as="geometry" />
        </mxCell>
        <mxCell id="HAakoLxj5uLmYUCumlcH-39" value="&lt;span style=&quot;font-size: 20px;&quot;&gt;Poulpe board #2&lt;/span&gt;" style="rounded=0;whiteSpace=wrap;html=1;" vertex="1" parent="1">
          <mxGeometry x="-900" y="466" width="180" height="119" as="geometry" />
        </mxCell>
        <mxCell id="HAakoLxj5uLmYUCumlcH-40" value="" style="shape=flexArrow;endArrow=classic;startArrow=classic;html=1;rounded=0;exitX=0;exitY=0.5;exitDx=0;exitDy=0;" edge="1" parent="1" source="HAakoLxj5uLmYUCumlcH-36">
          <mxGeometry width="100" height="100" relative="1" as="geometry">
            <mxPoint x="-590" y="330.5" as="sourcePoint" />
            <mxPoint x="-720" y="330" as="targetPoint" />
          </mxGeometry>
        </mxCell>
        <mxCell id="HAakoLxj5uLmYUCumlcH-41" value="" style="shape=flexArrow;endArrow=classic;startArrow=classic;html=1;rounded=0;exitX=0.5;exitY=0;exitDx=0;exitDy=0;" edge="1" parent="1" source="HAakoLxj5uLmYUCumlcH-39">
          <mxGeometry width="100" height="100" relative="1" as="geometry">
            <mxPoint x="-680" y="397.5" as="sourcePoint" />
            <mxPoint x="-810" y="397" as="targetPoint" />
          </mxGeometry>
        </mxCell>
        <mxCell id="HAakoLxj5uLmYUCumlcH-42" value="" style="shape=flexArrow;endArrow=classic;startArrow=classic;html=1;rounded=0;exitX=0.5;exitY=0;exitDx=0;exitDy=0;" edge="1" parent="1">
          <mxGeometry width="100" height="100" relative="1" as="geometry">
            <mxPoint x="-810.5" y="654" as="sourcePoint" />
            <mxPoint x="-810.5" y="585" as="targetPoint" />
          </mxGeometry>
        </mxCell>
        <mxCell id="HAakoLxj5uLmYUCumlcH-43" value="&lt;font style=&quot;font-size: 52px;&quot;&gt;....&lt;/font&gt;" style="text;html=1;align=center;verticalAlign=middle;whiteSpace=wrap;rounded=0;" vertex="1" parent="1">
          <mxGeometry x="-840" y="650" width="60" height="30" as="geometry" />
        </mxCell>
        <mxCell id="HAakoLxj5uLmYUCumlcH-44" value="&lt;font style=&quot;font-size: 20px;&quot;&gt;1kHz&lt;/font&gt;" style="text;html=1;align=center;verticalAlign=middle;whiteSpace=wrap;rounded=0;" vertex="1" parent="1">
          <mxGeometry x="-418" y="248" width="60" height="30" as="geometry" />
        </mxCell>
        <mxCell id="HAakoLxj5uLmYUCumlcH-45" value="&lt;span style=&quot;font-size: 20px;&quot;&gt;mutex protected shared memory&lt;/span&gt;" style="text;html=1;align=center;verticalAlign=middle;whiteSpace=wrap;rounded=0;fillColor=default;" vertex="1" parent="1">
          <mxGeometry x="-318" y="258" width="95" height="137" as="geometry" />
        </mxCell>
        <mxCell id="HAakoLxj5uLmYUCumlcH-46" value="&lt;span style=&quot;font-size: 20px;&quot;&gt;mutex protected shared memory&lt;/span&gt;" style="text;html=1;align=center;verticalAlign=middle;whiteSpace=wrap;rounded=0;fillColor=default;" vertex="1" parent="1">
          <mxGeometry x="29" y="248" width="95" height="148" as="geometry" />
        </mxCell>
        <mxCell id="HAakoLxj5uLmYUCumlcH-47" value="&lt;font style=&quot;font-size: 20px;&quot;&gt;ethernet cable&lt;/font&gt;" style="text;html=1;align=center;verticalAlign=middle;whiteSpace=wrap;rounded=0;fillColor=default;" vertex="1" parent="1">
          <mxGeometry x="-671" y="302" width="80" height="50" as="geometry" />
        </mxCell>
        <mxCell id="HAakoLxj5uLmYUCumlcH-48" value="&lt;span style=&quot;font-size: 20px;&quot;&gt;EtherCAT master&lt;br&gt;(ethercat_controller)&lt;/span&gt;" style="rounded=0;whiteSpace=wrap;html=1;fillColor=#fff2cc;strokeColor=#d6b656;" vertex="1" parent="1">
          <mxGeometry x="-187" y="1480" width="180" height="180" as="geometry" />
        </mxCell>
        <mxCell id="HAakoLxj5uLmYUCumlcH-49" value="&lt;font style=&quot;font-size: 20px;&quot;&gt;1kHz&lt;/font&gt;" style="text;html=1;align=center;verticalAlign=middle;whiteSpace=wrap;rounded=0;" vertex="1" parent="1">
          <mxGeometry x="-70" y="1487" width="60" height="30" as="geometry" />
        </mxCell>
        <mxCell id="HAakoLxj5uLmYUCumlcH-50" value="&lt;span style=&quot;font-size: 20px;&quot;&gt;EhterCAT GmbH&lt;/span&gt;&lt;div&gt;&lt;span style=&quot;font-size: 20px;&quot;&gt;master deamon&lt;/span&gt;&lt;/div&gt;" style="rounded=0;whiteSpace=wrap;html=1;" vertex="1" parent="1">
          <mxGeometry x="-538" y="1480" width="180" height="180" as="geometry" />
        </mxCell>
        <mxCell id="HAakoLxj5uLmYUCumlcH-51" value="" style="endArrow=classic;startArrow=classic;html=1;rounded=0;entryX=1;entryY=0.5;entryDx=0;entryDy=0;strokeWidth=5;" edge="1" parent="1" target="HAakoLxj5uLmYUCumlcH-50">
          <mxGeometry width="100" height="100" relative="1" as="geometry">
            <mxPoint x="-187" y="1569" as="sourcePoint" />
            <mxPoint x="-337" y="1569.5" as="targetPoint" />
          </mxGeometry>
        </mxCell>
        <mxCell id="HAakoLxj5uLmYUCumlcH-52" value="&lt;span style=&quot;font-size: 20px;&quot;&gt;Poulpe board #1&lt;/span&gt;" style="rounded=0;whiteSpace=wrap;html=1;" vertex="1" parent="1">
          <mxGeometry x="-900" y="1517" width="180" height="119" as="geometry" />
        </mxCell>
        <mxCell id="HAakoLxj5uLmYUCumlcH-53" value="&lt;span style=&quot;font-size: 20px;&quot;&gt;Poulpe board #2&lt;/span&gt;" style="rounded=0;whiteSpace=wrap;html=1;" vertex="1" parent="1">
          <mxGeometry x="-900" y="1705" width="180" height="119" as="geometry" />
        </mxCell>
        <mxCell id="HAakoLxj5uLmYUCumlcH-54" value="" style="shape=flexArrow;endArrow=classic;startArrow=classic;html=1;rounded=0;exitX=0;exitY=0.5;exitDx=0;exitDy=0;" edge="1" parent="1" source="HAakoLxj5uLmYUCumlcH-50">
          <mxGeometry width="100" height="100" relative="1" as="geometry">
            <mxPoint x="-590" y="1569.5" as="sourcePoint" />
            <mxPoint x="-720" y="1569" as="targetPoint" />
          </mxGeometry>
        </mxCell>
        <mxCell id="HAakoLxj5uLmYUCumlcH-55" value="" style="shape=flexArrow;endArrow=classic;startArrow=classic;html=1;rounded=0;exitX=0.5;exitY=0;exitDx=0;exitDy=0;" edge="1" parent="1" source="HAakoLxj5uLmYUCumlcH-53">
          <mxGeometry width="100" height="100" relative="1" as="geometry">
            <mxPoint x="-680" y="1636.5" as="sourcePoint" />
            <mxPoint x="-810" y="1636" as="targetPoint" />
          </mxGeometry>
        </mxCell>
        <mxCell id="HAakoLxj5uLmYUCumlcH-56" value="" style="shape=flexArrow;endArrow=classic;startArrow=classic;html=1;rounded=0;exitX=0.5;exitY=0;exitDx=0;exitDy=0;" edge="1" parent="1">
          <mxGeometry width="100" height="100" relative="1" as="geometry">
            <mxPoint x="-810.5" y="1893" as="sourcePoint" />
            <mxPoint x="-810.5" y="1824" as="targetPoint" />
          </mxGeometry>
        </mxCell>
        <mxCell id="HAakoLxj5uLmYUCumlcH-57" value="&lt;font style=&quot;font-size: 52px;&quot;&gt;....&lt;/font&gt;" style="text;html=1;align=center;verticalAlign=middle;whiteSpace=wrap;rounded=0;" vertex="1" parent="1">
          <mxGeometry x="-840" y="1889" width="60" height="30" as="geometry" />
        </mxCell>
        <mxCell id="HAakoLxj5uLmYUCumlcH-58" value="&lt;font style=&quot;font-size: 20px;&quot;&gt;1kHz&lt;/font&gt;" style="text;html=1;align=center;verticalAlign=middle;whiteSpace=wrap;rounded=0;" vertex="1" parent="1">
          <mxGeometry x="-418" y="1487" width="60" height="30" as="geometry" />
        </mxCell>
        <mxCell id="HAakoLxj5uLmYUCumlcH-59" value="&lt;span style=&quot;font-size: 20px;&quot;&gt;mutex protected shared memory&lt;/span&gt;" style="text;html=1;align=center;verticalAlign=middle;whiteSpace=wrap;rounded=0;fillColor=default;" vertex="1" parent="1">
          <mxGeometry x="-318" y="1497" width="95" height="137" as="geometry" />
        </mxCell>
        <mxCell id="HAakoLxj5uLmYUCumlcH-60" value="&lt;font style=&quot;font-size: 20px;&quot;&gt;ethernet cable&lt;/font&gt;" style="text;html=1;align=center;verticalAlign=middle;whiteSpace=wrap;rounded=0;fillColor=default;" vertex="1" parent="1">
          <mxGeometry x="-671" y="1541" width="80" height="50" as="geometry" />
        </mxCell>
        <mxCell id="HAakoLxj5uLmYUCumlcH-62" value="&lt;div style=&quot;text-align: right;&quot;&gt;&lt;span style=&quot;font-size: 20px;&quot;&gt;Motor control API&lt;/span&gt;&lt;/div&gt;&lt;div style=&quot;text-align: right;&quot;&gt;&lt;span style=&quot;font-size: 20px;&quot;&gt;poulpe_ethercat_controller&lt;br&gt;&lt;/span&gt;&lt;/div&gt;" style="text;whiteSpace=wrap;html=1;" vertex="1" parent="1">
          <mxGeometry x="-138" y="1398" width="200" height="70" as="geometry" />
        </mxCell>
        <mxCell id="HAakoLxj5uLmYUCumlcH-64" value="&lt;span style=&quot;font-size: 20px;&quot;&gt;EtherCAT master&lt;br&gt;(ethercat_controller)&lt;/span&gt;" style="rounded=0;whiteSpace=wrap;html=1;fillColor=#fff2cc;strokeColor=#d6b656;" vertex="1" parent="1">
          <mxGeometry x="-167" y="2542" width="180" height="180" as="geometry" />
        </mxCell>
        <mxCell id="HAakoLxj5uLmYUCumlcH-65" value="&lt;font style=&quot;font-size: 20px;&quot;&gt;1kHz&lt;/font&gt;" style="text;html=1;align=center;verticalAlign=middle;whiteSpace=wrap;rounded=0;" vertex="1" parent="1">
          <mxGeometry x="-50" y="2549" width="60" height="30" as="geometry" />
        </mxCell>
        <mxCell id="HAakoLxj5uLmYUCumlcH-66" value="&lt;span style=&quot;font-size: 20px;&quot;&gt;EhterCAT GmbH&lt;/span&gt;&lt;div&gt;&lt;span style=&quot;font-size: 20px;&quot;&gt;master deamon&lt;/span&gt;&lt;/div&gt;" style="rounded=0;whiteSpace=wrap;html=1;" vertex="1" parent="1">
          <mxGeometry x="-518" y="2542" width="180" height="180" as="geometry" />
        </mxCell>
        <mxCell id="HAakoLxj5uLmYUCumlcH-67" value="" style="endArrow=classic;startArrow=classic;html=1;rounded=0;entryX=1;entryY=0.5;entryDx=0;entryDy=0;strokeWidth=5;" edge="1" parent="1" target="HAakoLxj5uLmYUCumlcH-66">
          <mxGeometry width="100" height="100" relative="1" as="geometry">
            <mxPoint x="-167" y="2631" as="sourcePoint" />
            <mxPoint x="-317" y="2631.5" as="targetPoint" />
          </mxGeometry>
        </mxCell>
        <mxCell id="HAakoLxj5uLmYUCumlcH-68" value="&lt;span style=&quot;font-size: 20px;&quot;&gt;Poulpe board #1&lt;/span&gt;" style="rounded=0;whiteSpace=wrap;html=1;" vertex="1" parent="1">
          <mxGeometry x="-880" y="2579" width="180" height="119" as="geometry" />
        </mxCell>
        <mxCell id="HAakoLxj5uLmYUCumlcH-69" value="&lt;span style=&quot;font-size: 20px;&quot;&gt;Poulpe board #2&lt;/span&gt;" style="rounded=0;whiteSpace=wrap;html=1;" vertex="1" parent="1">
          <mxGeometry x="-880" y="2767" width="180" height="119" as="geometry" />
        </mxCell>
        <mxCell id="HAakoLxj5uLmYUCumlcH-70" value="" style="shape=flexArrow;endArrow=classic;startArrow=classic;html=1;rounded=0;exitX=0;exitY=0.5;exitDx=0;exitDy=0;" edge="1" parent="1" source="HAakoLxj5uLmYUCumlcH-66">
          <mxGeometry width="100" height="100" relative="1" as="geometry">
            <mxPoint x="-570" y="2631.5" as="sourcePoint" />
            <mxPoint x="-700" y="2631" as="targetPoint" />
          </mxGeometry>
        </mxCell>
        <mxCell id="HAakoLxj5uLmYUCumlcH-71" value="" style="shape=flexArrow;endArrow=classic;startArrow=classic;html=1;rounded=0;exitX=0.5;exitY=0;exitDx=0;exitDy=0;" edge="1" parent="1" source="HAakoLxj5uLmYUCumlcH-69">
          <mxGeometry width="100" height="100" relative="1" as="geometry">
            <mxPoint x="-660" y="2698.5" as="sourcePoint" />
            <mxPoint x="-790" y="2698" as="targetPoint" />
          </mxGeometry>
        </mxCell>
        <mxCell id="HAakoLxj5uLmYUCumlcH-72" value="" style="shape=flexArrow;endArrow=classic;startArrow=classic;html=1;rounded=0;exitX=0.5;exitY=0;exitDx=0;exitDy=0;" edge="1" parent="1">
          <mxGeometry width="100" height="100" relative="1" as="geometry">
            <mxPoint x="-790.5" y="2955" as="sourcePoint" />
            <mxPoint x="-790.5" y="2886" as="targetPoint" />
          </mxGeometry>
        </mxCell>
        <mxCell id="HAakoLxj5uLmYUCumlcH-73" value="&lt;font style=&quot;font-size: 52px;&quot;&gt;....&lt;/font&gt;" style="text;html=1;align=center;verticalAlign=middle;whiteSpace=wrap;rounded=0;" vertex="1" parent="1">
          <mxGeometry x="-820" y="2951" width="60" height="30" as="geometry" />
        </mxCell>
        <mxCell id="HAakoLxj5uLmYUCumlcH-74" value="&lt;font style=&quot;font-size: 20px;&quot;&gt;1kHz&lt;/font&gt;" style="text;html=1;align=center;verticalAlign=middle;whiteSpace=wrap;rounded=0;" vertex="1" parent="1">
          <mxGeometry x="-398" y="2549" width="60" height="30" as="geometry" />
        </mxCell>
        <mxCell id="HAakoLxj5uLmYUCumlcH-75" value="&lt;span style=&quot;font-size: 20px;&quot;&gt;mutex protected shared memory&lt;/span&gt;" style="text;html=1;align=center;verticalAlign=middle;whiteSpace=wrap;rounded=0;fillColor=default;" vertex="1" parent="1">
          <mxGeometry x="-298" y="2559" width="95" height="137" as="geometry" />
        </mxCell>
        <mxCell id="HAakoLxj5uLmYUCumlcH-76" value="&lt;font style=&quot;font-size: 20px;&quot;&gt;ethernet cable&lt;/font&gt;" style="text;html=1;align=center;verticalAlign=middle;whiteSpace=wrap;rounded=0;fillColor=default;" vertex="1" parent="1">
          <mxGeometry x="-651" y="2603" width="80" height="50" as="geometry" />
        </mxCell>
        <mxCell id="HAakoLxj5uLmYUCumlcH-78" value="" style="whiteSpace=wrap;html=1;aspect=fixed;fillColor=#fff2cc;strokeColor=#d6b656;" vertex="1" parent="1">
          <mxGeometry x="1782" y="1032" width="281" height="281" as="geometry" />
        </mxCell>
        <mxCell id="HAakoLxj5uLmYUCumlcH-79" value="&lt;span style=&quot;font-size: 20px;&quot;&gt;EtherCAT master&lt;br&gt;(ethercat_controller)&lt;/span&gt;" style="rounded=0;whiteSpace=wrap;html=1;fillColor=#fff2cc;strokeColor=#d6b656;" vertex="1" parent="1">
          <mxGeometry x="1783" y="1112" width="180" height="180" as="geometry" />
        </mxCell>
        <mxCell id="HAakoLxj5uLmYUCumlcH-80" value="&lt;font style=&quot;font-size: 20px;&quot;&gt;1kHz&lt;/font&gt;" style="text;html=1;align=center;verticalAlign=middle;whiteSpace=wrap;rounded=0;" vertex="1" parent="1">
          <mxGeometry x="1900" y="1119" width="60" height="30" as="geometry" />
        </mxCell>
        <mxCell id="HAakoLxj5uLmYUCumlcH-81" value="&lt;span style=&quot;font-size: 20px;&quot;&gt;EhterCAT GmbH&lt;/span&gt;&lt;div&gt;&lt;span style=&quot;font-size: 20px;&quot;&gt;master deamon&lt;/span&gt;&lt;/div&gt;" style="rounded=0;whiteSpace=wrap;html=1;" vertex="1" parent="1">
          <mxGeometry x="1432" y="1112" width="180" height="180" as="geometry" />
        </mxCell>
        <mxCell id="HAakoLxj5uLmYUCumlcH-82" value="" style="endArrow=classic;startArrow=classic;html=1;rounded=0;entryX=1;entryY=0.5;entryDx=0;entryDy=0;strokeWidth=5;" edge="1" parent="1" target="HAakoLxj5uLmYUCumlcH-81">
          <mxGeometry width="100" height="100" relative="1" as="geometry">
            <mxPoint x="1783" y="1201" as="sourcePoint" />
            <mxPoint x="1633" y="1201.5" as="targetPoint" />
          </mxGeometry>
        </mxCell>
        <mxCell id="HAakoLxj5uLmYUCumlcH-83" value="&lt;span style=&quot;font-size: 20px;&quot;&gt;Poulpe board #1&lt;/span&gt;" style="rounded=0;whiteSpace=wrap;html=1;" vertex="1" parent="1">
          <mxGeometry x="1070" y="1149" width="180" height="119" as="geometry" />
        </mxCell>
        <mxCell id="HAakoLxj5uLmYUCumlcH-84" value="&lt;span style=&quot;font-size: 20px;&quot;&gt;Poulpe board #2&lt;/span&gt;" style="rounded=0;whiteSpace=wrap;html=1;" vertex="1" parent="1">
          <mxGeometry x="1070" y="1337" width="180" height="119" as="geometry" />
        </mxCell>
        <mxCell id="HAakoLxj5uLmYUCumlcH-85" value="" style="shape=flexArrow;endArrow=classic;startArrow=classic;html=1;rounded=0;exitX=0;exitY=0.5;exitDx=0;exitDy=0;" edge="1" parent="1" source="HAakoLxj5uLmYUCumlcH-81">
          <mxGeometry width="100" height="100" relative="1" as="geometry">
            <mxPoint x="1380" y="1201.5" as="sourcePoint" />
            <mxPoint x="1250" y="1201" as="targetPoint" />
          </mxGeometry>
        </mxCell>
        <mxCell id="HAakoLxj5uLmYUCumlcH-86" value="" style="shape=flexArrow;endArrow=classic;startArrow=classic;html=1;rounded=0;exitX=0.5;exitY=0;exitDx=0;exitDy=0;" edge="1" parent="1" source="HAakoLxj5uLmYUCumlcH-84">
          <mxGeometry width="100" height="100" relative="1" as="geometry">
            <mxPoint x="1290" y="1268.5" as="sourcePoint" />
            <mxPoint x="1160" y="1268" as="targetPoint" />
          </mxGeometry>
        </mxCell>
        <mxCell id="HAakoLxj5uLmYUCumlcH-87" value="" style="shape=flexArrow;endArrow=classic;startArrow=classic;html=1;rounded=0;exitX=0.5;exitY=0;exitDx=0;exitDy=0;" edge="1" parent="1">
          <mxGeometry width="100" height="100" relative="1" as="geometry">
            <mxPoint x="1159.5" y="1525" as="sourcePoint" />
            <mxPoint x="1159.5" y="1456" as="targetPoint" />
          </mxGeometry>
        </mxCell>
        <mxCell id="HAakoLxj5uLmYUCumlcH-88" value="&lt;font style=&quot;font-size: 52px;&quot;&gt;....&lt;/font&gt;" style="text;html=1;align=center;verticalAlign=middle;whiteSpace=wrap;rounded=0;" vertex="1" parent="1">
          <mxGeometry x="1130" y="1521" width="60" height="30" as="geometry" />
        </mxCell>
        <mxCell id="HAakoLxj5uLmYUCumlcH-89" value="&lt;font style=&quot;font-size: 20px;&quot;&gt;1kHz&lt;/font&gt;" style="text;html=1;align=center;verticalAlign=middle;whiteSpace=wrap;rounded=0;" vertex="1" parent="1">
          <mxGeometry x="1552" y="1119" width="60" height="30" as="geometry" />
        </mxCell>
        <mxCell id="HAakoLxj5uLmYUCumlcH-90" value="&lt;span style=&quot;font-size: 20px;&quot;&gt;mutex protected shared memory&lt;/span&gt;" style="text;html=1;align=center;verticalAlign=middle;whiteSpace=wrap;rounded=0;fillColor=default;" vertex="1" parent="1">
          <mxGeometry x="1652" y="1129" width="95" height="137" as="geometry" />
        </mxCell>
        <mxCell id="HAakoLxj5uLmYUCumlcH-91" value="&lt;font style=&quot;font-size: 20px;&quot;&gt;ethernet cable&lt;/font&gt;" style="text;html=1;align=center;verticalAlign=middle;whiteSpace=wrap;rounded=0;fillColor=default;" vertex="1" parent="1">
          <mxGeometry x="1299" y="1173" width="80" height="50" as="geometry" />
        </mxCell>
        <mxCell id="HAakoLxj5uLmYUCumlcH-92" value="&lt;div style=&quot;text-align: right;&quot;&gt;&lt;span style=&quot;font-size: 20px;&quot;&gt;Motor control API&lt;/span&gt;&lt;/div&gt;&lt;div style=&quot;text-align: right;&quot;&gt;&lt;span style=&quot;font-size: 20px;&quot;&gt;poulpe_ethercat_controller&lt;br&gt;&lt;/span&gt;&lt;/div&gt;" style="text;whiteSpace=wrap;html=1;" vertex="1" parent="1">
          <mxGeometry x="1832" y="1030" width="200" height="70" as="geometry" />
        </mxCell>
        <mxCell id="HAakoLxj5uLmYUCumlcH-94" value="&lt;span style=&quot;font-size: 20px;&quot;&gt;GRPC client&amp;nbsp;&lt;br&gt;slave #1&lt;/span&gt;" style="rounded=0;whiteSpace=wrap;html=1;fillColor=#fff2cc;strokeColor=#d6b656;" vertex="1" parent="1">
          <mxGeometry x="2450" y="918" width="160" height="160" as="geometry" />
        </mxCell>
        <mxCell id="HAakoLxj5uLmYUCumlcH-95" value="&lt;span style=&quot;font-size: 20px;&quot;&gt;GRPC client&lt;/span&gt;&lt;div&gt;&lt;span style=&quot;font-size: 20px;&quot;&gt;slave #2&lt;/span&gt;&lt;/div&gt;" style="rounded=0;whiteSpace=wrap;html=1;fillColor=#fff2cc;strokeColor=#d6b656;" vertex="1" parent="1">
          <mxGeometry x="2450" y="1118" width="160" height="160" as="geometry" />
        </mxCell>
        <mxCell id="HAakoLxj5uLmYUCumlcH-96" value="&lt;font style=&quot;font-size: 52px;&quot;&gt;....&lt;/font&gt;" style="text;html=1;align=center;verticalAlign=middle;whiteSpace=wrap;rounded=0;" vertex="1" parent="1">
          <mxGeometry x="2500" y="1318" width="60" height="30" as="geometry" />
        </mxCell>
        <mxCell id="HAakoLxj5uLmYUCumlcH-97" value="" style="endArrow=classic;html=1;rounded=0;entryX=-0.006;entryY=0.313;entryDx=0;entryDy=0;entryPerimeter=0;strokeWidth=4;" edge="1" parent="1" target="HAakoLxj5uLmYUCumlcH-94">
          <mxGeometry width="50" height="50" relative="1" as="geometry">
            <mxPoint x="2140" y="968" as="sourcePoint" />
            <mxPoint x="2190" y="918" as="targetPoint" />
          </mxGeometry>
        </mxCell>
        <mxCell id="HAakoLxj5uLmYUCumlcH-98" value="" style="endArrow=classic;html=1;rounded=0;entryX=-0.006;entryY=0.313;entryDx=0;entryDy=0;entryPerimeter=0;strokeWidth=4;" edge="1" parent="1">
          <mxGeometry width="50" height="50" relative="1" as="geometry">
            <mxPoint x="2450" y="1038" as="sourcePoint" />
            <mxPoint x="2141" y="1038" as="targetPoint" />
          </mxGeometry>
        </mxCell>
        <mxCell id="HAakoLxj5uLmYUCumlcH-99" value="" style="endArrow=classic;html=1;rounded=0;entryX=-0.006;entryY=0.313;entryDx=0;entryDy=0;entryPerimeter=0;strokeWidth=4;" edge="1" parent="1">
          <mxGeometry width="50" height="50" relative="1" as="geometry">
            <mxPoint x="2140" y="1162.5" as="sourcePoint" />
            <mxPoint x="2449" y="1162.5" as="targetPoint" />
          </mxGeometry>
        </mxCell>
        <mxCell id="HAakoLxj5uLmYUCumlcH-100" value="" style="endArrow=classic;html=1;rounded=0;entryX=-0.006;entryY=0.313;entryDx=0;entryDy=0;entryPerimeter=0;strokeWidth=4;" edge="1" parent="1">
          <mxGeometry width="50" height="50" relative="1" as="geometry">
            <mxPoint x="2450" y="1232.5" as="sourcePoint" />
            <mxPoint x="2141" y="1232.5" as="targetPoint" />
          </mxGeometry>
        </mxCell>
        <mxCell id="HAakoLxj5uLmYUCumlcH-101" value="&lt;font style=&quot;font-size: 20px;&quot;&gt;PoulpeState&lt;/font&gt;" style="text;html=1;align=center;verticalAlign=middle;whiteSpace=wrap;rounded=0;labelBackgroundColor=default;strokeColor=none;fillColor=default;" vertex="1" parent="1">
          <mxGeometry x="2243" y="951" width="108" height="30" as="geometry" />
        </mxCell>
        <mxCell id="HAakoLxj5uLmYUCumlcH-102" value="&lt;font style=&quot;font-size: 20px;&quot;&gt;PoulpeState&lt;/font&gt;" style="text;html=1;align=center;verticalAlign=middle;whiteSpace=wrap;rounded=0;labelBackgroundColor=default;strokeColor=none;fillColor=default;" vertex="1" parent="1">
          <mxGeometry x="2242" y="1147" width="116" height="30" as="geometry" />
        </mxCell>
        <mxCell id="HAakoLxj5uLmYUCumlcH-103" value="&lt;font style=&quot;font-size: 20px;&quot;&gt;PoulpeCommand&lt;/font&gt;" style="text;html=1;align=center;verticalAlign=middle;whiteSpace=wrap;rounded=0;labelBackgroundColor=default;strokeColor=none;fillColor=default;" vertex="1" parent="1">
          <mxGeometry x="2212" y="1217" width="173" height="30" as="geometry" />
        </mxCell>
        <mxCell id="HAakoLxj5uLmYUCumlcH-104" value="&lt;font style=&quot;font-size: 20px;&quot;&gt;PoulpeCommand&lt;/font&gt;" style="text;html=1;align=center;verticalAlign=middle;whiteSpace=wrap;rounded=0;labelBackgroundColor=default;strokeColor=none;fillColor=default;" vertex="1" parent="1">
          <mxGeometry x="2215" y="1023" width="173" height="30" as="geometry" />
        </mxCell>
        <mxCell id="HAakoLxj5uLmYUCumlcH-105" value="&lt;span style=&quot;color: rgb(0, 0, 0); font-family: Helvetica; font-size: 20px; font-style: normal; font-variant-ligatures: normal; font-variant-caps: normal; font-weight: 400; letter-spacing: normal; orphans: 2; text-align: center; text-indent: 0px; text-transform: none; widows: 2; word-spacing: 0px; -webkit-text-stroke-width: 0px; white-space: normal; text-decoration-thickness: initial; text-decoration-style: initial; text-decoration-color: initial; float: none; display: inline !important;&quot;&gt;GRPC server&lt;/span&gt;" style="text;whiteSpace=wrap;html=1;" vertex="1" parent="1">
          <mxGeometry x="1999" y="918" width="140" height="50" as="geometry" />
        </mxCell>
      </root>
    </mxGraphModel>
  </diagram>
</mxfile>
